PathFileType	4	(X/Y/Z)	./resultDataOpenSim/trcMotMarkerGrf/sub06/qtm-01-08.trc
DataRate	CameraRate	NumFrames	NumMarkers	Units	OrigDataRate	OrigDataStartFrame	OrigNumFrames
250.000000	250.000000	7	24	m	250.000000	355	473
Frame#	Time	L.Toe.Tip			R.Toe.Tip			L.Ankle.Lat			R.Ankle.Lat			L.Ankle.Med			R.Ankle.Med			L.Heel			R.Heel			L.Knee.Lat			R.Knee.Lat			L.Knee.Med			R.Knee.Med			L.Thigh.Upper			R.Thigh.Upper			L.ASIS			R.ASIS			V.Sacral			L.Acromium			R.Acromium			C7			L.Elbow			R.Elbow			L.Wrist.Lat			R.Wrist.Lat
		X1	Y1	Z1	X2	Y2	Z2	X3	Y3	Z3	X4	Y4	Z4	X5	Y5	Z5	X6	Y6	Z6	X7	Y7	Z7	X8	Y8	Z8	X9	Y9	Z9	X10	Y10	Z10	X11	Y11	Z11	X12	Y12	Z12	X13	Y13	Z13	X14	Y14	Z14	X15	Y15	Z15	X16	Y16	Z16	X17	Y17	Z17	X18	Y18	Z18	X19	Y19	Z19	X20	Y20	Z20	X21	Y21	Z21	X22	Y22	Z22	X23	Y23	Z23	X24	Y24	Z24

355	1.416	1.3680466	0.082839023	-0.063749814	0.93032801	0.035375017	0.098573149	1.2408297	0.098561358	-0.077472504	0.7962369	0.070559619	0.12888305	1.2497806	0.1145679	0.0062691429	0.81772709	0.096420534	0.044015067	1.1770203	0.057325296	-0.029531005	0.73965784	0.05735673	0.070223888	1.2287231	0.47812215	-0.076582364	0.92628922	0.4424484	0.1683768	1.221208	0.46738779	0.043513755	0.89371009	0.44385252	0.039966115	1.0386511	0.82176635	-0.11024159	0.98459866	0.80483582	0.2338747	1.0991289	0.86608704	-0.05564863	1.0872464	0.85966322	0.19079126	0.90685226	0.93173871	0.061691879	0.99757961	1.3471415	-0.11646378	1.0238783	1.333616	0.24322138	0.93544623	1.3731038	0.069680788	0.90680484	1.0437694	-0.17622432	1.0190391	1.0171862	0.33844541	1.027397	0.83491602	-0.21630958	1.2617542	0.95144695	0.32502211
356	1.42	1.3868642	0.086610184	-0.06196915	0.93039024	0.0353267	0.098509291	1.2591891	0.098304712	-0.076698061	0.79647583	0.071026542	0.12855274	1.2672698	0.11451889	0.0069586963	0.81826805	0.096661495	0.043669854	1.1965256	0.055085945	-0.029132361	0.73990518	0.058089434	0.069808126	1.2349695	0.47645437	-0.075657433	0.92896492	0.44178213	0.16842407	1.2271692	0.46547067	0.044596949	0.89750212	0.44336135	0.039580639	1.0455599	0.82019305	-0.11017253	0.9897162	0.8036854	0.23358458	1.1060486	0.86444866	-0.055509553	1.092709	0.85800027	0.19182889	0.91306107	0.9304091	0.060862789	1.0038413	1.3456545	-0.11657894	1.0301504	1.3324572	0.24310918	0.94170557	1.3718394	0.069631179	0.91179371	1.0428297	-0.1760666	1.0267843	1.0160605	0.33886496	1.0306384	0.83329923	-0.21744732	1.2703602	0.95314636	0.32362714
357	1.424	1.4052199	0.090478734	-0.060254791	0.93045498	0.035283392	0.098455724	1.2771986	0.098357821	-0.07594722	0.7967784	0.071522167	0.12824951	1.2845813	0.1146935	0.0079062405	0.8188239	0.09693362	0.043355595	1.2157128	0.053232837	-0.028458268	0.74019009	0.058861926	0.069397932	1.2411944	0.47465336	-0.074671045	0.93186129	0.44112459	0.1684201	1.2330928	0.46342643	0.04573888	0.90137976	0.44289108	0.039183949	1.052592	0.81856789	-0.11016505	0.99492894	0.80250417	0.23327872	1.1129929	0.86281846	-0.055363912	1.0983767	0.85643612	0.19250949	0.91929971	0.92901991	0.060013518	1.0101116	1.3441467	-0.11669634	1.0364263	1.3312617	0.24297913	0.94799553	1.3705467	0.069557083	0.91685945	1.0418597	-0.17588443	1.0345065	1.0149133	0.33925738	1.03397	0.83166758	-0.21856551	1.2788829	0.95471634	0.32229463
358	1.428	1.4230646	0.094415359	-0.058638828	0.93052389	0.035243548	0.09841159	1.2947924	0.098707466	-0.075204985	0.79711303	0.072065488	0.12799208	1.3015845	0.11508708	0.0089878794	0.81939703	0.097238359	0.043076961	1.2344952	0.051770619	-0.027631631	0.74049839	0.059678254	0.069027343	1.2474426	0.47275622	-0.073640414	0.93502705	0.44049027	0.16833668	1.238996	0.46127249	0.046935748	0.90532829	0.44244897	0.038787718	1.0597978	0.81690376	-0.11023843	1.0002366	0.80130085	0.23295571	1.1199567	0.8612066	-0.055228134	1.1042215	0.85497434	0.19285965	0.9255383	0.92757623	0.059090129	1.0164021	1.3426219	-0.11682607	1.042699	1.3300326	0.24283068	0.95430608	1.3692349	0.069422414	0.92200006	1.0408578	-0.17569695	1.0422068	1.0137511	0.339627	1.0373684	0.83001741	-0.21964759	1.2872158	0.95617986	0.32105639
359	1.432	1.4403471	0.098402876	-0.057140412	0.93059749	0.035204251	0.098364178	1.3119067	0.099344585	-0.074452854	0.79747123	0.072661972	0.12778531	1.3180116	0.11570271	0.0099764949	0.81998511	0.097576779	0.042837706	1.2527926	0.050737221	-0.026875328	0.74080245	0.060547628	0.068745034	1.2537479	0.47080096	-0.072600826	0.93839733	0.43986595	0.16818973	1.2448941	0.45902316	0.048174375	0.90934525	0.4420262	0.03839261	1.0671449	0.81521299	-0.11037638	1.0056396	0.80007704	0.23261297	1.1269374	0.85961618	-0.055124916	1.1101667	0.85354978	0.19304376	0.93177326	0.92609376	0.058084508	1.0227214	1.341083	-0.11697283	1.0489677	1.328775	0.24266458	0.96062534	1.3679079	0.06923229	0.92721532	1.0398278	-0.17550317	1.0498854	1.0125781	0.33997378	1.0408142	0.82834719	-0.22068508	1.2953133	0.95756057	0.31991609
360	1.436	1.4570295	0.10243173	-0.055763588	0.93067336	0.035166526	0.098304157	1.328495	0.10024647	-0.073677416	0.79786444	0.073301216	0.12762589	1.3335714	0.11649587	0.010718811	0.82057728	0.09795035	0.042641139	1.2705382	0.050153024	-0.026380661	0.74108122	0.061482294	0.06858505	1.2601315	0.46881336	-0.071581628	0.94183318	0.43921278	0.16803716	1.2508072	0.45669361	0.049465988	0.91340517	0.44160595	0.038022679	1.0745247	0.81351188	-0.11053012	1.0111412	0.79882793	0.23225234	1.1339377	0.85804779	-0.055062546	1.1161732	0.85211649	0.19316454	0.93802176	0.92459035	0.057034962	1.0290666	1.3395321	-0.11713759	1.0552356	1.3274927	0.24248164	0.9669482	1.3665624	0.069009789	0.93250597	1.0387738	-0.17528947	1.0575368	1.0113928	0.34029492	1.0443101	0.82666101	-0.2216799	1.3032426	0.9588626	0.31881766
361	1.44	1.4730938	0.10649911	-0.054515602	0.93074595	0.035132857	0.098235784	1.34452	0.10137068	-0.072865418	0.79829633	0.073971447	0.12750847	1.3481486	0.11738335	0.011246867	0.82116579	0.098360237	0.042489772	1.2876952	0.049968654	-0.026119776	0.74133396	0.062492077	0.068547415	1.2666025	0.46681409	-0.070589775	0.94526105	0.4385129	0.167924	1.2567813	0.45431096	0.050872333	0.91747232	0.44117434	0.037716614	1.0818422	0.81181264	-0.11065441	1.0167406	0.7975467	0.23188102	1.1409639	0.85650286	-0.055031872	1.1222336	0.85066081	0.19325322	0.94429606	0.92308178	0.056000657	1.0354305	1.3379691	-0.11731957	1.0615067	1.3261873	0.24228348	0.97327504	1.3651959	0.068768486	0.93787121	1.0376963	-0.17505572	1.0651537	1.0101915	0.34058756	1.0478761	0.82496244	-0.22263715	1.3111098	0.96007779	0.31768779
